<svg version="1.1" id="Layer_1" xmlns="http://www.w3.org/2000/svg" xmlns:xlink="http://www.w3.org/1999/xlink" x="0px" y="0px"
	 width="100%" viewBox="0 0 1024 1024" enable-background="new 0 0 1024 1024" xml:space="preserve">
<path fill="#000000" opacity="1.000000" stroke="none" 
	d="
M458.922241,289.787811 
	C464.297150,287.554077 469.680023,288.835052 474.905731,288.234619 
	C479.223785,287.738495 483.090851,286.560730 485.130798,282.978577 
	C489.917603,274.572784 497.873291,270.983795 506.291412,268.116547 
	C514.241760,265.408691 521.474670,261.573090 528.590515,257.109650 
	C541.028931,249.307632 554.148682,242.522507 568.956787,240.648682 
	C578.226685,239.475632 587.554810,240.935516 596.691650,242.949112 
	C604.987366,244.777328 613.215027,246.931396 621.542053,248.594360 
	C627.795959,249.843307 632.965210,253.128906 638.124512,256.482269 
	C642.491150,259.320465 647.036377,261.699249 652.032471,263.178833 
	C658.901733,265.213104 664.767944,269.128906 669.995178,273.763092 
	C682.124268,284.516022 692.267700,296.956543 701.445679,310.379242 
	C710.504395,323.627533 714.419373,338.317535 716.847839,353.742218 
	C719.647278,371.522766 726.082825,388.161194 733.679993,404.312256 
	C742.732178,423.556366 749.816162,443.354584 753.074158,464.428802 
	C754.539551,473.907532 758.044189,482.969818 757.134216,492.939178 
	C755.154114,514.632996 755.317322,536.578918 748.371033,557.605774 
	C747.545776,560.103943 747.326416,562.821716 746.990173,565.458618 
	C745.912354,573.910522 744.553467,582.278809 740.958740,590.118469 
	C739.068298,594.241394 738.145386,598.676270 737.322937,603.090210 
	C735.429382,613.253174 729.647461,620.227356 720.308716,624.323181 
	C701.073059,632.759460 682.303162,642.073303 664.213135,652.794128 
	C658.347595,656.270142 653.243469,660.441589 649.127808,665.693542 
	C640.117737,677.191101 629.142212,687.184875 622.616577,700.620789 
	C621.296204,703.339417 619.845764,705.902100 619.412842,708.903625 
	C618.249451,716.968079 617.125183,725.038208 615.988770,733.106506 
	C615.369385,737.504028 612.873108,740.642700 609.509766,743.374023 
	C600.502258,750.688721 589.511230,753.902588 579.038757,758.097656 
	C569.302673,761.997864 559.076355,764.710388 549.451843,768.844299 
	C536.447693,774.429810 524.407837,781.990967 511.923309,788.646423 
	C501.457794,794.225525 490.699219,799.110168 478.445251,799.144775 
	C473.329254,799.159241 468.521057,798.006897 464.038574,795.590759 
	C450.549408,788.320068 436.857849,781.388306 423.672150,773.601501 
	C410.308655,765.709656 401.003906,753.704529 393.641876,740.271973 
	C389.068542,731.927612 382.969513,724.574829 378.312958,716.391785 
	C371.432465,704.300476 362.815887,692.939209 363.757477,677.409668 
	C364.385101,667.058228 363.003235,656.388916 361.083038,646.131042 
	C358.917236,634.561279 359.238373,622.916626 358.105499,611.338623 
	C357.555817,605.720825 356.597748,600.527161 350.690521,597.623840 
	C347.274963,595.945190 347.562653,592.191040 348.082489,589.118835 
	C351.448334,569.227905 345.997162,550.564514 340.429840,531.896240 
	C336.685211,519.339722 336.309174,506.305817 334.968445,493.406158 
	C333.711395,481.311829 334.744934,469.084686 332.933411,457.042419 
	C332.268463,452.622070 330.729706,448.339264 329.732910,443.961060 
	C328.590607,438.943512 329.666138,434.361969 332.945374,430.371460 
	C337.277985,425.099121 341.566528,419.786072 346.045197,414.639465 
	C350.429779,409.600983 355.674225,406.163757 362.649750,405.465973 
	C370.284637,404.702271 375.686432,401.045624 377.273132,392.823242 
	C378.146515,388.297485 381.507751,384.917725 384.209778,381.374664 
	C393.647217,368.999695 404.945709,358.427063 417.044922,348.727570 
	C421.339386,345.284790 423.872925,341.121613 424.743713,335.781494 
	C425.388733,331.826202 426.285919,327.922089 427.920746,324.241974 
	C430.090576,319.357422 433.248138,315.684540 438.561981,313.684692 
	C444.580444,311.419769 448.738831,306.844055 450.927155,300.714355 
	C452.474762,296.379456 454.516785,292.466309 458.922241,289.787811 
M509.490662,576.989990 
	C498.733215,587.613281 487.911621,598.172852 477.265198,608.906311 
	C474.725983,611.466187 473.190765,611.140503 470.793060,608.698181 
	C462.398987,600.147888 453.933228,591.653748 445.182648,583.471985 
	C437.469269,576.260071 428.340668,574.777405 418.398041,578.336853 
	C406.533081,582.584595 397.854767,597.553345 404.428528,611.751282 
	C406.181213,615.536743 405.456940,617.508789 401.225037,619.227417 
	C388.877594,624.241821 383.527191,641.201660 389.760712,652.954346 
	C393.866730,660.695801 400.908875,665.594543 406.579681,671.816101 
	C408.792877,674.244263 411.494934,676.306885 409.381897,680.363342 
	C404.802185,689.155273 407.647278,700.793274 414.991180,707.738220 
	C421.845245,714.219849 430.087433,717.782837 442.360413,712.949768 
	C444.612061,712.063110 446.547241,711.833374 448.592194,714.075134 
	C452.948364,718.850464 457.604309,723.368713 462.325439,727.791504 
	C472.542816,737.363159 486.146149,737.416748 496.608887,728.830872 
	C500.808167,725.384827 502.872101,720.465332 505.310791,715.210266 
	C508.207947,717.291748 511.159149,717.769531 513.977478,718.665283 
	C529.828186,723.703003 544.756836,709.341003 545.615723,695.016235 
	C546.081360,687.250427 542.434082,680.918945 537.234619,675.513977 
	C529.740112,667.723145 522.172180,659.995300 514.413452,652.469666 
	C511.105713,649.261230 511.281952,647.025635 514.513489,643.816589 
	C535.465576,623.010132 556.270508,602.055359 577.083740,581.109375 
	C581.215210,576.951538 582.192810,576.771912 586.367981,580.848755 
	C594.813904,589.095825 602.917908,597.713196 611.650513,605.640869 
	C620.307800,613.500122 631.489807,613.977966 641.113708,607.798340 
	C650.815613,601.568665 654.684631,591.209900 652.029114,580.091431 
	C651.338806,577.200989 649.775269,574.642029 649.208862,571.555420 
	C650.080383,571.121643 650.784302,570.723206 651.524292,570.410034 
	C670.289978,562.470947 674.288147,541.268005 659.737305,526.894104 
	C655.713989,522.919739 651.796814,518.835999 647.713379,514.925171 
	C645.725830,513.021667 645.470825,511.014313 646.447449,508.603394 
	C650.744690,497.994446 648.489624,488.510742 640.446899,480.840607 
	C632.890076,473.633820 623.773865,471.853638 613.834656,475.927612 
	C611.263855,476.981323 609.059753,476.449066 607.068115,474.363434 
	C602.934692,470.035034 598.578979,465.918304 594.463135,461.573975 
	C583.171997,449.656219 561.020386,450.618774 553.165344,467.136810 
	C550.824341,472.059692 548.376038,472.145416 544.246643,470.435822 
	C538.812256,468.185974 533.142151,468.287292 527.671387,470.085754 
	C509.373444,476.100983 503.828644,498.471375 518.173157,512.493835 
	C526.023254,520.167603 533.515137,528.211426 541.454163,535.789062 
	C545.070679,539.240967 545.092712,541.716919 541.520386,545.178406 
	C530.883850,555.484619 520.484802,566.036011 509.490662,576.989990 
M620.192505,436.654602 
	C625.010681,428.601135 625.237976,420.390106 620.981201,412.056000 
	C619.598328,409.348633 620.820251,408.496674 623.321350,407.413544 
	C635.442017,402.164612 645.950012,385.551819 635.449158,370.422760 
	C630.926880,363.907349 624.987183,358.915924 619.611938,353.334045 
	C617.106628,350.732483 616.313538,348.416199 617.770935,345.432739 
	C620.854248,339.120483 620.042114,333.025726 617.569641,326.748169 
	C612.845154,314.752686 596.358032,307.538116 584.737183,313.055176 
	C581.705627,314.494385 580.157166,313.775452 578.282410,311.934509 
	C573.189087,306.933014 568.196899,301.825745 563.016968,296.916168 
	C558.122559,292.277222 551.539001,289.107788 545.495178,289.965118 
	C536.511414,291.239502 528.026733,295.444366 524.024231,304.901062 
	C522.244873,309.105194 519.669678,310.143555 515.427063,308.016846 
	C502.367523,301.470398 481.917328,311.983643 481.406464,328.575745 
	C481.226990,334.404327 480.786072,340.508850 485.116028,345.137238 
	C494.197571,354.844696 503.353058,364.507629 512.949829,373.696228 
	C516.728455,377.314087 516.002686,379.273560 512.805481,382.440491 
	C491.561096,403.484283 470.391693,424.605011 449.362122,445.863159 
	C446.327057,448.931152 444.438019,449.313599 441.321503,446.030579 
	C433.647736,437.946747 425.632446,430.187317 417.761597,422.290344 
	C408.431061,412.928894 395.086670,411.313263 384.496552,418.272797 
	C374.318939,424.961273 370.854309,437.205505 375.858124,449.475891 
	C377.264801,452.925385 375.982361,455.041931 372.994080,456.162201 
	C355.314728,462.790039 354.165192,488.511841 366.905182,498.991821 
	C371.377533,502.670715 375.202240,507.145966 379.246735,511.330963 
	C380.621460,512.753418 382.080200,514.285767 380.688080,516.576965 
	C378.566406,520.068909 379.485687,524.035889 378.944397,527.778687 
	C376.846375,542.285522 396.326599,558.549255 412.393738,550.973938 
	C415.431824,549.541626 418.156921,549.581787 420.781311,552.595947 
	C424.592010,556.972595 428.901550,560.928284 433.129944,564.924255 
	C437.294647,568.860046 442.173370,571.641602 447.955841,572.214294 
	C460.744720,573.480896 469.003265,566.862915 474.740814,556.253967 
	C475.789825,554.314392 476.638306,552.403381 479.122803,554.027222 
	C482.569305,556.279785 486.497070,556.106506 490.245270,556.322632 
	C501.177521,556.953186 509.003296,551.918640 514.034668,542.340515 
	C517.719788,535.325134 516.191101,521.605530 510.534760,515.633545 
	C501.952606,506.572449 493.159729,497.697113 484.147858,489.064941 
	C481.225372,486.265594 481.468506,484.543457 484.279877,482.306305 
	C485.310303,481.486359 486.219727,480.509979 487.155487,479.576080 
	C507.735687,459.035797 528.368408,438.547485 548.831421,417.891052 
	C552.138245,414.552979 554.380066,414.867249 557.451355,418.038208 
	C564.959534,425.790100 573.158691,432.913849 580.257996,441.010864 
	C590.258362,452.416656 612.886230,450.700897 620.192505,436.654602 
z"/>
<path fill="#000000" opacity="1.000000" stroke="none" 
	d="
M551.127563,528.889160 
	C542.930542,520.837891 534.924011,513.110474 527.070374,505.230469 
	C520.910522,499.049927 520.513733,489.668304 525.960693,484.203888 
	C530.372742,479.777679 539.597900,479.361420 544.208801,483.587769 
	C548.594666,487.607849 552.854065,491.774933 557.013794,496.029236 
	C559.626282,498.701080 562.362000,499.687225 565.213257,496.881927 
	C567.816345,494.320831 567.888550,491.002411 565.560242,488.314789 
	C563.160767,485.544983 562.718872,482.466431 562.513611,479.087921 
	C562.119019,472.593445 565.009583,468.202240 570.889587,465.789124 
	C576.301819,463.567963 580.951904,465.116516 584.972900,469.119904 
	C597.937561,482.027985 610.937683,494.900543 623.874512,507.836395 
	C633.635071,517.596252 643.404968,527.349670 652.999451,537.271545 
	C657.331238,541.751160 657.720703,548.383911 654.512573,553.677795 
	C651.531189,558.597534 645.086487,561.052063 639.273010,559.334106 
	C636.375549,558.477844 633.914307,556.808960 631.769287,554.654480 
	C616.440674,539.258240 601.101807,523.872192 585.751526,508.497559 
	C583.133240,505.875092 580.223328,503.801483 576.617859,506.654297 
	C574.119080,508.631531 574.788940,513.622253 577.957825,516.813232 
	C592.439636,531.395813 606.983826,545.916443 621.499084,560.465820 
	C626.524048,565.502625 631.560303,570.528564 636.536499,575.613220 
	C642.419128,581.624084 642.869995,590.086304 637.682068,595.743835 
	C632.660645,601.219788 623.756531,601.321899 617.561707,595.370483 
	C607.388123,585.596680 597.533569,575.490051 587.568420,565.500000 
	C575.493958,553.395325 563.444275,541.265991 551.127563,528.889160 
z"/>
<path fill="#000000" opacity="1.000000" stroke="none" 
	d="
M465.251099,713.776489 
	C444.667999,693.222900 424.278015,672.971680 404.030457,652.579041 
	C397.643066,646.145874 396.953400,641.112854 400.849274,634.903198 
	C405.349854,627.729614 414.253387,625.907959 421.047943,631.091858 
	C424.467682,633.700928 427.901764,634.543762 430.699341,631.201172 
	C433.501923,627.852722 431.287506,624.699890 428.646759,622.050537 
	C425.251740,618.644531 422.042023,615.037903 418.483307,611.814819 
	C413.455353,607.260986 414.004547,601.633606 415.510925,596.144531 
	C417.041565,590.567200 422.443268,588.721985 427.183594,588.167908 
	C431.494720,587.664001 435.643646,590.289490 438.939178,593.607178 
	C452.396362,607.154907 465.906830,620.649719 479.414520,634.147217 
	C495.853973,650.574158 512.336975,666.957642 528.742615,683.418335 
	C533.478149,688.169678 534.784180,695.263916 532.140503,700.330627 
	C529.254089,705.862549 523.682190,708.369202 517.013672,707.384216 
	C513.807922,706.910645 511.585480,704.959534 509.496338,702.871887 
	C490.411865,683.801331 471.389923,664.668274 452.323334,645.579773 
	C450.926514,644.181335 449.480560,642.707886 447.782806,641.762634 
	C445.067719,640.250610 442.033295,640.354187 440.081238,642.901428 
	C438.349213,645.161560 438.461945,647.897034 440.667328,650.161438 
	C446.799500,656.457642 452.915527,662.769592 459.060364,669.053345 
	C467.043732,677.217163 475.612823,684.799866 483.071503,693.490051 
	C484.988007,695.722961 487.574677,697.371033 489.570221,699.547546 
	C494.870819,705.328674 494.805969,714.021606 489.236053,719.297852 
	C484.078308,724.183411 476.801239,724.539001 470.425446,718.955566 
	C468.681427,717.428223 467.135895,715.674194 465.251099,713.776489 
z"/>
<path fill="#000000" opacity="1.000000" stroke="none" 
	d="
M537.044434,566.054199 
	C541.984436,561.094604 546.777527,556.496582 551.327148,551.669189 
	C553.242493,549.636963 554.983215,549.392273 556.851807,551.222229 
	C561.596436,555.869019 566.248352,560.611145 570.892761,565.358826 
	C572.850037,567.359619 572.816284,568.942749 570.564026,571.169189 
	C548.663086,592.819336 526.862244,614.571838 505.190979,636.451782 
	C502.672638,638.994385 501.128601,639.166931 498.751068,636.642212 
	C493.546143,631.115051 488.191040,625.729309 483.129028,620.523987 
	C500.946198,602.530640 518.872620,584.426880 537.044434,566.054199 
z"/>
<path fill="#000000" opacity="1.000000" stroke="none" 
	d="
M420.027527,693.674561 
	C418.243286,691.281250 418.399414,689.170776 419.574463,686.580200 
	C424.372253,688.612244 427.152924,692.629028 430.322571,695.972107 
	C432.216949,697.970154 437.177795,699.649414 434.633148,703.069275 
	C432.361328,706.122437 429.038635,702.165894 426.208893,701.389893 
	C422.685089,700.423584 421.321045,697.211365 420.027527,693.674561 
z"/>
<path fill="#000000" opacity="1.000000" stroke="none" 
	d="
M622.485107,489.610107 
	C621.286804,488.425659 620.141418,487.435822 621.086304,485.974060 
	C621.921631,484.681824 623.379761,484.674530 624.687927,485.104584 
	C630.868347,487.136414 635.591553,490.600189 636.715698,497.558502 
	C636.934326,498.911621 637.301453,500.302612 635.877197,501.115234 
	C634.346985,501.988342 633.337097,500.635254 632.467590,499.786346 
	C629.148804,496.546326 625.954834,493.178345 622.485107,489.610107 
z"/>
<path fill="#000000" opacity="1.000000" stroke="none" 
	d="
M403.065735,517.930176 
	C393.521454,508.388519 384.474731,498.837280 374.864105,489.891846 
	C368.192261,483.681763 368.748962,474.794128 373.199554,470.309937 
	C378.836578,464.630341 384.635498,463.333649 392.716217,469.117157 
	C394.879852,470.665680 396.998199,470.992767 399.264648,470.513947 
	C402.760590,469.775391 404.420013,465.211853 402.055389,462.416046 
	C398.854370,458.631195 395.365662,455.063293 391.762939,451.653168 
	C389.041473,449.077209 387.003418,446.221161 385.722565,442.695251 
	C384.271271,438.700073 385.873199,432.784210 389.624146,429.279022 
	C393.903564,425.279968 399.182739,423.990753 403.331848,426.172699 
	C406.120636,427.639252 408.708282,429.434326 410.970642,431.705566 
	C433.706940,454.531525 456.473267,477.327576 479.235901,500.127289 
	C486.158081,507.060699 492.931885,514.153442 500.076721,520.849792 
	C505.763092,526.179260 505.913879,536.686646 500.723389,541.432800 
	C495.005066,546.661560 486.578125,546.379456 480.632080,540.433167 
	C460.819519,520.619690 441.041870,500.771240 421.182709,481.004700 
	C418.595276,478.429352 415.725861,475.723114 411.888641,479.437592 
	C409.280182,481.962616 409.626984,485.904480 413.163910,489.461914 
	C428.680298,505.068237 444.282837,520.588989 459.802032,536.192566 
	C464.494202,540.910278 465.990753,548.446167 463.367615,553.016541 
	C459.813690,559.208679 453.894897,561.499695 446.788879,559.684448 
	C444.554779,559.113770 442.823608,557.869873 441.327362,556.376404 
	C428.615326,543.687866 415.980560,530.921936 403.065735,517.930176 
z"/>
<path fill="#000000" opacity="1.000000" stroke="none" 
	d="
M571.937134,322.090576 
	C588.519226,338.662262 604.808594,355.028107 621.210754,371.280182 
	C626.984497,377.001160 629.002625,383.067780 626.634766,389.139832 
	C623.011841,398.430298 611.210876,400.307892 603.564148,392.709015 
	C588.298828,377.539246 573.102539,362.299927 557.868958,347.098206 
	C556.809875,346.041321 555.792114,344.882202 554.555542,344.077179 
	C552.235718,342.566895 549.690369,342.550842 547.660706,344.473816 
	C545.605408,346.421112 544.645142,348.718994 546.634216,351.548096 
	C549.622314,355.798096 553.646484,359.023529 557.245483,362.651855 
	C573.929688,379.472015 590.517761,396.399597 607.630127,412.776825 
	C613.990967,418.864410 613.336060,429.170868 608.586060,433.640900 
	C602.961060,438.934326 594.379578,438.630737 588.102539,432.380432 
	C558.100647,402.506714 528.170715,372.560638 498.162201,342.693573 
	C488.709442,333.285339 492.818481,321.261139 503.688232,318.090363 
	C508.524048,316.679688 512.201416,318.562225 515.474609,321.396393 
	C519.724304,325.075989 523.482971,329.316986 527.640808,333.110474 
	C529.995728,335.259033 532.773621,337.384735 535.961670,334.443329 
	C538.934570,331.700409 538.206604,328.707825 536.380676,325.492188 
	C533.784363,320.919830 531.038940,316.546417 534.216248,310.701111 
	C539.087891,301.738861 548.636414,299.486725 556.078003,306.393341 
	C561.440857,311.370636 566.496277,316.679169 571.937134,322.090576 
z"/>
<path fill="#000000" opacity="1.000000" stroke="none" 
	d="
M532.268555,418.298523 
	C521.718994,428.861267 511.396118,439.139404 501.054871,449.398987 
	C492.726868,457.661285 484.251221,465.780212 476.108154,474.220398 
	C473.460449,476.964722 471.731384,476.340576 469.539337,474.104279 
	C465.350220,469.830597 461.180542,465.533600 456.865326,461.389404 
	C454.388458,459.010712 454.486389,457.096191 456.894440,454.696808 
	C470.666077,440.974335 484.337006,427.150879 498.068634,413.388184 
	C506.048431,405.390350 514.139709,397.502716 522.045532,389.432953 
	C524.306641,387.125031 526.238708,387.031769 528.403015,389.213959 
	C532.964844,393.813324 537.462585,398.476532 542.045715,403.054352 
	C543.966431,404.972870 544.035400,406.528839 541.942810,408.473053 
	C538.666565,411.516724 535.627075,414.815277 532.268555,418.298523 
z"/>
<path fill="#000000" opacity="1.000000" stroke="none" 
	d="
M393.647705,525.402588 
	C398.127106,530.025635 402.363007,534.403687 407.160370,539.362061 
	C402.435822,540.951233 398.698547,540.631592 395.485962,537.973083 
	C392.111206,535.180481 389.364532,531.820068 390.092072,526.953735 
	C390.372437,525.078491 391.153534,523.635620 393.647705,525.402588 
z"/>
<path fill="#000000" opacity="1.000000" stroke="none" 
	d="
M607.338379,335.563171 
	C607.266479,336.902130 607.517639,337.938660 606.290344,339.069855 
	C600.687561,334.982452 596.200378,329.702667 591.290222,324.679962 
	C597.797852,320.233002 606.397461,326.242828 607.338379,335.563171 
z"/>
</svg>